# xmcd
#
# Track frame offsets: 
#        150
#        18152
#        32762
#        48322
#        65687
#        84350
#        103562
#        120177
#        136357
#        154502
#
# Disc length: 2257 seconds
#
# Revision: 4
# Processed by: cddbd v1.5.1PL2 Copyright (c) Steve Scherf et al.
# Submitted via: ExactAudioCopy v0.90b4
#
DISCID=7008cf0a
DTITLE=Ronnie Milsap - Greatest Hits, Vol. 2
DYEAR=1985
DGENRE=Country
TTITLE0=She Keeps The Home Fires Burning
TTITLE1=(There's) No Gettin' Over Me
TTITLE2=I Wouldn't Have Missed It For The World
TTITLE3=It's Already Taken
TTITLE4=Stranger In My House
TTITLE5=Lost In The Fifties Tonight (In The Still Of The Night)
TTITLE6=Any Day Now
TTITLE7=Am I Losing You
TTITLE8=Inside
TTITLE9=Don't You Know How Much I Love You
EXTD=
EXTT0=
EXTT1=
EXTT2=
EXTT3=
EXTT4=
EXTT5=
EXTT6=
EXTT7=
EXTT8=
EXTT9=
PLAYORDER=
